<svg width="100" height="100" viewBox="0 0 100 100" fill="none" xmlns="http://www.w3.org/2000/svg">
<path d="M54.1668 58.3307C54.1668 56.0295 52.3014 54.1641 50.0002 54.1641C47.6989 54.1641 45.8335 56.0295 45.8335 58.3307V66.6641C45.8335 68.9653 47.6989 70.8307 50.0002 70.8307C52.3014 70.8307 54.1668 68.9653 54.1668 66.6641V58.3307Z" fill="black"/>
<path fill-rule="evenodd" clip-rule="evenodd" d="M29.1665 33.8375C22.1503 35.5533 16.6665 41.5017 16.6665 49.0409V72.118C16.6665 83.2234 26.3142 91.6693 37.4998 91.6693H62.4998C73.6857 91.6693 83.3332 83.2234 83.3332 72.118V49.0409C83.3332 41.5017 77.8494 35.5533 70.8332 33.8375V29.1693C70.8332 17.6634 61.5057 8.33594 49.9998 8.33594C38.4939 8.33594 29.1665 17.6634 29.1665 29.1693V33.8375ZM62.4998 29.1693V33.3359H37.4998V29.1693C37.4998 27.7083 37.7505 26.3059 38.2111 25.0026C39.9271 20.1476 44.5573 16.6693 49.9998 16.6693C55.4423 16.6693 60.0728 20.1476 61.7886 25.0026C62.249 26.3059 62.4998 27.7083 62.4998 29.1693ZM24.9998 49.0409C24.9998 45.2776 28.4105 41.6693 33.3332 41.6693H66.6665C71.589 41.6693 74.9998 45.2776 74.9998 49.0409V72.118C74.9998 78.0059 69.7236 83.3359 62.4998 83.3359H37.4998C30.276 83.3359 24.9998 78.0059 24.9998 72.118V49.0409Z" fill="black"/>
</svg>
