<svg width="103" height="103" viewBox="0 0 103 103" fill="none" xmlns="http://www.w3.org/2000/svg">
<path d="M51.5002 28.1034C51.114 28.4059 50.7406 28.7053 50.3769 29.0304C44.0842 34.5183 40.1284 42.5491 40.1284 51.5037C40.1284 60.4583 44.081 68.489 50.3382 73.948L50.3736 73.977C50.7341 74.2989 51.1172 74.6111 51.497 74.9104C51.8832 74.6143 52.2566 74.2989 52.6203 73.977C58.913 68.489 62.8656 60.4583 62.8656 51.5037C62.8656 42.5491 58.913 34.5183 52.6557 29.0593L52.6203 29.0304C52.2598 28.7085 51.88 28.4027 51.497 28.1034H51.5002ZM69.9147 21.7142C69.8986 21.7142 69.8793 21.7142 69.8567 21.7142C63.7315 21.7142 58.0439 23.5714 53.3188 26.7547L53.425 26.6871C53.6664 26.877 53.8853 27.0766 54.0849 27.2858L54.0881 27.289C60.899 33.1987 65.1799 41.8635 65.1799 51.5294C65.1799 61.1728 60.9215 69.8184 54.1814 75.6926L54.1428 75.7248C53.911 75.9211 53.66 76.1175 53.4154 76.3106C58.0536 79.4328 63.7669 81.2964 69.9115 81.2964C86.3657 81.2964 99.7042 67.9579 99.7042 51.5037C99.7042 35.0494 86.3689 21.7174 69.9147 21.7142ZM48.8608 75.728C49.0926 75.9243 49.3436 76.1207 49.5883 76.3138C44.9533 79.4328 39.2432 81.2932 33.0986 81.2932C16.6444 81.2932 3.30908 67.9547 3.30908 51.5037C3.30908 35.0527 16.6476 21.7142 33.0986 21.7142C39.2368 21.7142 44.9436 23.5714 49.6848 26.7547L49.5786 26.6871C49.3372 26.877 49.1183 27.0766 48.9188 27.2858L48.9156 27.289C42.1047 33.1987 37.8237 41.8635 37.8237 51.5294C37.8237 61.1728 42.0821 69.8184 48.8222 75.6926L48.8608 75.728Z" fill="black"/>
</svg>
