<svg width="103" height="103" viewBox="0 0 103 103" fill="none" xmlns="http://www.w3.org/2000/svg">
<g clip-path="url(#clip0_193_2685)">
<path d="M102.647 44.8816C101.709 42.2079 99.1606 40.2886 96.1768 40.2886H96.1098C94.1653 40.2886 92.4136 41.1016 91.1647 42.4007C90.5259 41.7328 89.7584 41.2013 88.9085 40.8383C88.0586 40.4753 87.1439 40.2883 86.2197 40.2886H86.161C84.4512 40.2886 82.8839 40.9172 81.6853 41.9481V41.4285C81.6434 40.9004 81.216 40.4897 80.6796 40.4897H76.0865C75.525 40.4897 75.0724 40.9423 75.0724 41.5039V66.4303C75.0724 66.9918 75.525 67.4444 76.0865 67.4444H80.6796C80.9232 67.4446 81.1586 67.3563 81.342 67.196C81.5255 67.0357 81.6445 66.8142 81.677 66.5728V48.6784C81.677 48.6114 81.677 48.5611 81.6853 48.5024C81.7608 47.7062 82.3475 47.044 83.2694 46.9686H84.116C84.5015 47.0021 84.8284 47.1362 85.0798 47.3458C85.4821 47.6643 85.7 48.1504 85.7 48.6868L85.7168 66.4889C85.7168 67.0505 86.1694 67.5115 86.731 67.5115H91.324C91.5836 67.5117 91.8333 67.4115 92.0208 67.2319C92.2082 67.0522 92.3189 66.807 92.3298 66.5476V48.67C92.3298 48.0833 92.598 47.5469 93.0757 47.2368C93.3104 47.0859 93.5953 46.9854 93.9222 46.9518H94.7687C95.7661 47.0356 96.3612 47.79 96.3612 48.67L96.378 66.4554C96.378 67.017 96.8306 67.4696 97.3921 67.4696H101.985C102.522 67.4696 102.966 67.0505 102.999 66.5225V47.0189C102.974 45.9209 102.832 45.4096 102.647 44.8816ZM71.5689 40.5568H68.9456V36.2823C68.9451 36.1456 68.9144 36.0108 68.8557 35.8874C68.7969 35.7641 68.7116 35.6552 68.6059 35.5687C68.5001 35.4822 68.3766 35.4202 68.244 35.387C68.1115 35.3539 67.9732 35.3505 67.8392 35.3771C64.9309 36.1733 65.5092 40.2048 60.1953 40.5484H59.6841C59.6086 40.5484 59.5332 40.5568 59.4578 40.5736C59.0136 40.6825 58.6699 41.0848 58.6699 41.571V46.164C58.6699 46.7255 59.1225 47.1781 59.6841 47.1781H62.4499L62.4416 66.6398C62.4416 67.193 62.8942 67.6456 63.4473 67.6456H67.9901C68.5433 67.6456 68.9958 67.193 68.9958 66.6398V47.1781H71.5689C72.1221 47.1781 72.5831 46.7172 72.5831 46.164V41.571C72.5831 41.0094 72.1305 40.5568 71.5689 40.5568Z" fill="black"/>
<path d="M55.0576 40.5553H50.4646C49.9114 40.5553 49.4505 41.0079 49.4505 41.5694V51.0656C49.4421 51.6523 48.9643 52.1216 48.3776 52.1216H46.4583C45.8632 52.1216 45.3771 51.6439 45.3771 51.0488L45.3603 41.5694C45.3603 41.0079 44.9077 40.5553 44.3462 40.5553H39.7531C39.1916 40.5553 38.739 41.0079 38.739 41.5694V51.9708C38.739 55.9184 41.5551 58.743 45.5112 58.743C45.5112 58.743 48.4782 58.743 48.5704 58.7597C49.1068 58.8184 49.5175 59.271 49.5175 59.8242C49.5175 60.369 49.1152 60.8216 48.5788 60.8886C48.5536 60.8886 48.5285 60.897 48.5033 60.9054L41.7898 60.9305C41.2283 60.9305 40.7757 61.3831 40.7757 61.9447V66.5293C40.7757 67.0909 41.2283 67.5435 41.7898 67.5435H49.2912C53.2472 67.5435 56.0634 64.7273 56.0634 60.7797V41.5694C56.0718 41.0079 55.6192 40.5553 55.0576 40.5553ZM28.9411 40.5804H22.5712C22.0096 40.5804 21.5487 41.0079 21.5487 41.5275V45.8356C21.5487 46.3887 22.0348 46.8497 22.6299 46.8497H28.698C29.1758 46.9251 29.5529 47.2772 29.6116 47.822V48.417C29.5613 48.9367 29.1841 49.3139 28.7232 49.3558H25.7226C21.7247 49.3558 18.8834 52.0127 18.8834 55.734V61.073C18.8834 64.7776 21.3307 67.4094 25.2952 67.4094H33.6179C35.1098 67.4094 36.3251 66.2779 36.3251 64.8866V47.4699C36.3251 43.2457 34.146 40.5804 28.9411 40.5804ZM29.6703 59.7404V60.4612C29.6703 60.5198 29.6619 60.5785 29.6535 60.6288C29.6451 60.6791 29.6284 60.7294 29.6116 60.7797C29.4691 61.182 29.0668 61.4753 28.5891 61.4753H26.6781C26.083 61.4753 25.5969 61.0227 25.5969 60.4612V56.5303C25.5969 55.9771 26.083 55.5245 26.6781 55.5245H28.5891C29.1841 55.5245 29.6703 55.9771 29.6703 56.5386V59.7404ZM11.03 40.5469H0.997391C0.444216 40.5469 0 40.9995 0 41.5443V66.4874C0 67.0406 0.41069 67.4932 0.930339 67.5016H5.60718C6.16873 67.5016 6.62133 67.049 6.62133 66.4874L6.63809 59.5141H11.03C14.701 59.5141 17.2658 56.9661 17.2658 53.2699V46.7994C17.2658 43.1116 14.701 40.5469 11.03 40.5469ZM10.6277 48.9618V51.7948C10.6277 52.3898 10.1499 52.876 9.55483 52.876H6.64648V47.2017H9.55483C10.1499 47.2017 10.6277 47.6795 10.6277 48.2746V48.9618Z" fill="black"/>
</g>
<defs>
<clipPath id="clip0_193_2685">
<rect width="103" height="103" fill="white"/>
</clipPath>
</defs>
</svg>
