<svg width="100" height="100" viewBox="0 0 100 100" fill="none" xmlns="http://www.w3.org/2000/svg">
<g clip-path="url(#clip0_193_2600)">
<path fill-rule="evenodd" clip-rule="evenodd" d="M39.9422 62.9306V34.8715C49.9032 39.5586 57.618 44.0865 66.7423 48.9682C59.2167 53.1417 49.9032 57.8246 39.9422 62.9306ZM95.455 20.9164C93.7368 18.6526 90.8083 16.8904 87.6904 16.307C78.5263 14.5668 21.3549 14.5618 12.1958 16.307C9.69554 16.7757 7.46918 17.9087 5.55666 19.6689C-2.50181 27.1484 0.0233309 67.2585 1.96574 73.7558C2.78254 76.5681 3.83845 78.5963 5.16825 79.9277C6.88155 81.6878 9.22733 82.8998 11.9218 83.4433C19.4673 85.004 58.3402 85.8766 87.531 83.6777C90.2205 83.2089 92.6011 81.958 94.4788 80.123C101.93 72.6734 101.422 30.3107 95.455 20.9164Z" fill="black"/>
</g>
<defs>
<clipPath id="clip0_193_2600">
<rect width="100" height="100" fill="white"/>
</clipPath>
</defs>
</svg>
