<svg width="100" height="100" viewBox="0 0 100 100" fill="none" xmlns="http://www.w3.org/2000/svg">
<path fill-rule="evenodd" clip-rule="evenodd" d="M21.875 75.0391C21.0462 75.0391 20.2514 75.3683 19.6653 75.9543C19.0793 76.5404 18.75 77.3353 18.75 78.1641C18.75 78.9929 19.0793 79.7877 19.6653 80.3737C20.2514 80.9598 21.0462 81.2891 21.875 81.2891H40.625C41.4538 81.2891 42.2486 80.9598 42.8347 80.3737C43.4207 79.7877 43.75 78.9929 43.75 78.1641C43.75 77.3353 43.4207 76.5404 42.8347 75.9543C42.2486 75.3683 41.4538 75.0391 40.625 75.0391H21.875Z" fill="black"/>
<path fill-rule="evenodd" clip-rule="evenodd" d="M18.7499 6.28906C18.1689 6.28959 17.5995 6.45207 17.1057 6.75827C16.6119 7.06447 16.2133 7.50224 15.9545 8.02246L6.57948 26.8823C6.3806 27.2937 6.27433 27.7438 6.2682 28.2007C6.26166 28.225 6.25547 28.2494 6.24951 28.2738V90.6639C6.24959 91.4926 6.57882 92.2875 7.16485 92.8735C7.75088 93.4596 8.54574 93.7888 9.37451 93.7889H90.6245C91.4533 93.7888 92.248 93.4596 92.8341 92.8735C93.4201 92.2875 93.7494 91.4926 93.7495 90.6639V28.2738V28.2675C93.7477 27.7865 93.6349 27.3124 93.4199 26.882L84.0449 8.02217C83.7861 7.50207 83.3876 7.06441 82.8938 6.75827C82.4001 6.45213 81.8308 6.28964 81.2499 6.28906H18.7499ZM20.6786 12.5391H40.0817L38.037 25.1489H14.4164L20.6786 12.5391ZM46.4049 12.5391H59.851L61.9567 25.1489H44.3663L46.4049 12.5391ZM66.1864 12.5391H79.3151L85.5834 25.1489H68.2921L66.1864 12.5391ZM12.4999 31.3989H37.4999V62.5391C37.5001 63.157 37.6836 63.7609 38.027 64.2747C38.3704 64.7884 38.8584 65.1888 39.4293 65.4253C40.0002 65.6617 40.6283 65.7237 41.2344 65.6032C41.8405 65.4828 42.3973 65.1853 42.8344 64.7485L53.1249 54.458L63.4154 64.7485C63.8525 65.1853 64.4093 65.4828 65.0154 65.6032C65.6215 65.7237 66.2496 65.6617 66.8205 65.4253C67.3914 65.1888 67.8794 64.7884 68.2228 64.2747C68.5662 63.7609 68.7496 63.157 68.7499 62.5391V31.3989H87.4999V87.5391H12.4999V31.3989ZM43.7499 31.3989H62.4999V54.9951L55.3344 47.8296C54.7483 47.2438 53.9536 46.9146 53.1249 46.9146C52.2962 46.9146 51.5015 47.2438 50.9154 47.8296L43.7499 54.9951V31.3989Z" fill="black"/>
</svg>
