<svg width="100" height="100" viewBox="0 0 100 100" fill="none" xmlns="http://www.w3.org/2000/svg">
<g clip-path="url(#clip0_193_2146)">
<path d="M54.1307 100H45.8696C40.9209 99.599 35.9229 99.0021 31.0431 97.911C25.4536 96.6614 19.1543 95.4304 18.4051 88.9676L18.3755 52.6532L0.788788 42.9357C-0.118152 42.1897 -0.0688622 41.4529 0.0888665 40.3805C5.13618 25.9722 3.11529 13.914 19.1642 6.2669C23.827 4.04737 28.6673 2.07964 33.3992 0C35.1539 0.0559545 36.8791 0.895272 38.5944 1.29628C45.8499 3.02154 52.4055 3.24536 59.7399 1.67863C61.4059 1.32426 65.6547 -0.242469 66.9363 0.074606C67.3503 0.177189 68.415 0.708757 68.9276 0.923249C73.5214 2.83503 79.249 5.27837 83.5865 7.56318C96.3921 14.3337 95.5443 28.5275 99.872 40.2126C100.01 41.024 100.168 41.9938 99.5565 42.6653L81.6247 52.6532L81.5952 88.9583C80.846 95.4304 74.5467 96.6521 68.9572 97.9017C64.2154 98.9555 58.9414 99.7669 54.1307 99.9907V100ZM18.415 47.6546V37.7879C18.415 37.6294 19.0459 36.9579 19.2529 36.8181C20.5936 35.9321 22.3089 36.501 22.7427 37.9931V87.8019C23.0778 91.7654 25.6409 92.1757 29.1109 93.1083C42.0348 96.5774 56.9501 96.6241 69.9134 93.3414C72.5652 92.67 75.9367 92.185 76.952 89.4526L77.0506 38.9537C77.1295 37.0325 78.8744 35.5311 80.7572 36.8087C81.0431 37.0046 81.5952 37.6853 81.5952 37.9744V47.6452L95.2387 40.2966L89.9154 20.927C86.9382 11.3961 76.2521 9.40035 68.0798 5.25972C67.3996 6.89173 67.0151 8.48643 66.1476 10.0811C59.1878 22.7548 39.5013 22.2512 33.3893 9.16721C32.788 7.88958 32.5317 6.53735 31.9303 5.26905C24.0833 9.29777 13.7817 11.1816 10.4102 20.0597L4.77144 40.2966L18.415 47.6452V47.6546ZM63.4169 5.25972C54.4856 7.50723 45.5049 7.57251 36.5735 5.25972C40.4576 18.3064 59.5132 18.2598 63.4169 5.25972Z" fill="black"/>
</g>
<defs>
<clipPath id="clip0_193_2146">
<rect width="100" height="100" fill="white"/>
</clipPath>
</defs>
</svg>
