<svg width="32" height="32" viewBox="0 0 20 20" fill="none" xmlns="http://www.w3.org/2000/svg">
<g clip-path="url(#clip0_94_1084)">
<path d="M10 20C15.5228 20 20 15.5228 20 10C20 4.47715 15.5228 0 10 0C4.47715 0 0 4.47715 0 10C0 15.5228 4.47715 20 10 20Z" fill="white"/>
<path d="M17.9798 8.43C17.2898 6.56 17.4198 4.29 15.3698 3.21C14.6798 2.84 13.7598 2.45 13.0298 2.15C12.9498 2.11 12.7798 2.03 12.7098 2.01C12.5098 1.96 11.8298 2.21 11.5598 2.27C10.3898 2.52 9.33979 2.48 8.17979 2.21C7.89979 2.14 7.61979 2.01 7.33979 2C6.58979 2.33 5.80979 2.65 5.06979 3C2.49979 4.23 2.81979 6.16 2.00979 8.46C1.98979 8.63 1.97979 8.75 2.12979 8.87L4.93979 10.42V16.23C5.05979 17.27 6.06979 17.47 6.96979 17.67C7.74979 17.84 8.54979 17.94 9.33979 18H10.6598C11.4298 17.96 12.2698 17.83 13.0298 17.66C13.9298 17.46 14.9398 17.27 15.0598 16.23V10.42L17.9298 8.83C18.0298 8.72 17.9998 8.56 17.9798 8.43ZM12.1498 2.84C11.5198 4.92 8.46979 4.93 7.84979 2.84C9.27979 3.21 10.7198 3.2 12.1498 2.84ZM15.0598 9.62V8.08C15.0598 8.08 14.9698 7.92 14.9198 7.89C14.6198 7.68 14.3398 7.93 14.3298 8.23L14.3098 16.31C14.1498 16.75 13.6098 16.83 13.1898 16.93C11.1098 17.46 8.72979 17.45 6.65979 16.9C6.09979 16.75 5.68979 16.68 5.63979 16.05V8.08C5.56979 7.84 5.29979 7.75 5.07979 7.89C5.04979 7.91 4.94979 8.02 4.94979 8.05V9.62L2.75979 8.45L3.66979 5.21C4.20979 3.79 5.84979 3.49 7.10979 2.84C7.20979 3.05 7.24979 3.26 7.33979 3.47C8.31979 5.56 11.4698 5.64 12.5798 3.61C12.7198 3.36 12.7798 3.1 12.8898 2.84C14.1998 3.5 15.9098 3.82 16.3898 5.35L17.2398 8.45L15.0598 9.62Z" fill="black"/>
</g>
<defs>
<clipPath id="clip0_94_1084">
<rect width="20" height="20" fill="white"/>
</clipPath>
</defs>
</svg>
