<svg width="103" height="103" viewBox="0 0 103 103" fill="none" xmlns="http://www.w3.org/2000/svg">
<g clip-path="url(#clip0_193_2681)">
<path d="M58.1337 35.7308C58.1337 32.7985 55.6134 32.4412 53.2348 32.4412L46.2436 32.3897V44.7819H49.1759V40.295H52.3947C55.6842 40.295 54.989 42.1361 55.0405 44.7819H58.0082V42.3678C58.0082 40.7231 57.741 39.6673 56.0415 39.0783C57.3644 38.5408 58.153 37.1631 58.1337 35.7308ZM52.8775 37.7522H49.1759V35.0162H52.9322C53.8431 35.0162 54.8441 35.1965 54.8441 36.3391C54.8441 37.5204 53.8978 37.7522 52.8775 37.7522ZM49.8905 53.7558H40.466L36.7097 57.8307L33.0435 53.7558H21.1535L21.1342 66.148H32.8311L36.6389 62.0344L40.2857 66.148H46.0441L46.0634 61.9829C49.4431 61.9829 54.8795 62.8037 54.8795 57.8178C54.8795 54.7246 52.6811 53.7558 49.8905 53.7558ZM31.3279 63.5376H24.0697V61.0688H30.5587V58.5485H24.0697V56.3147H31.5275L34.7269 59.9261L31.3279 63.5376ZM43.0957 65.0021L38.5701 59.9776L43.0957 55.0787V65.0021ZM49.8551 59.4594H46.0634V56.3115H49.9066C50.9076 56.3115 51.7316 56.7235 51.7316 57.8146C51.7316 58.9573 50.9076 59.4594 49.8551 59.4594ZM44.2029 35.0162V32.4058H34.2795V44.798H44.2029V42.2423H37.2472V39.7735H44.0066V37.2532H37.2472V35.0194L44.2029 35.0162ZM68.2019 57.1001C68.2019 54.1678 65.6817 53.7558 63.3577 53.7558H56.3119L56.2958 66.148H59.2635L59.2828 61.6256H62.4307C64.3974 61.6256 65.0765 61.9829 65.0765 64.0912L65.0604 66.148H68.0281L68.0474 63.6824C68.0474 62.0891 67.7256 60.9819 66.0808 60.3928C67.4584 59.8392 68.1923 58.4616 68.2084 57.1033L68.2019 57.1001ZM62.9811 59.1021H59.2796V56.3115H63.0358C63.9468 56.3115 64.9478 56.4917 64.9478 57.6344C64.9478 58.8672 63.9822 59.1021 62.9811 59.1021ZM32.0811 44.798V32.4058H27.1468L23.6255 40.81L19.7437 32.4058H14.8994V44.1542L9.87498 32.4058H5.49426L0.18332 44.798H3.38276L4.52863 42.0621H10.699L11.8416 44.798H17.8864V35.1063L22.177 44.798H24.7874L29.078 35.1063V44.798H32.0811ZM5.57795 39.4871L7.58001 34.5527L9.63679 39.4871H5.57795ZM90.9488 67.899V67.0943C89.0176 68.0953 90.2504 67.899 62.9264 67.899C62.9264 63.3927 62.9457 63.6245 62.9264 63.3927C62.6238 63.3734 62.3535 63.3734 61.2462 63.3734C61.2462 66.5761 61.2269 64.5901 61.2269 67.899H54.1457C54.1457 65.736 54.1618 65.163 54.1618 62.6782C52.3721 63.75 50.0868 63.8208 48.03 63.7854C48.03 66.4151 48.0107 65.2692 48.0107 67.899H39.2654C38.3545 66.8786 38.7826 67.3453 36.5101 64.7864C35.9372 65.4109 34.2216 67.2713 33.6326 67.899H18.9679V51.3932H33.8289C34.7237 52.3942 34.331 51.9468 36.6003 54.4703C37.1732 53.8459 38.7826 52.0724 39.407 51.3932H49.7778C51.532 51.3932 52.9966 51.7344 54.1231 52.3942V51.3932C63.8341 51.3932 65.6205 51.1422 67.6612 52.3041V51.3932H81.6467V52.3234C83.6841 51.0907 85.1519 51.3932 93.2503 51.3932V52.288C95.0914 51.2323 96.2179 51.3578 102.961 51.3932V20.0297C102.961 15.2917 99.118 11.4453 94.3768 11.4453H8.54241C3.80441 11.4453 -0.0419922 15.2885 -0.0419922 20.0297V39.6641C1.6382 35.7469 3.47932 31.437 4.08766 30.0239H11.1882C11.9575 31.8297 11.4747 30.687 12.7976 33.7963V30.0239H21.0247C21.5429 31.1344 23.0107 34.3145 23.5096 35.3896C24.546 32.9594 25.3153 31.1151 25.7627 30.0239H44.1804C44.1804 30.0078 46.2372 30.0239 46.2533 30.0239C54.0684 30.0593 55.8387 29.8823 57.77 30.9702V30.0239H64.9059V31.688C66.2643 30.5969 68.1054 30.0239 70.3971 30.0239H75.3315C75.3315 30.1141 75.6694 30.0787 75.7435 30.0787H81.5372C82.2872 31.8297 82.0039 31.1505 83.1112 33.7641V30.0787H90.8555C91.731 31.5078 90.6753 29.7568 92.8576 33.3682V30.0787H99.9935V46.5297H92.555C91.5894 44.9203 92.3039 46.137 90.1924 42.6125V46.5297H80.7518C79.606 43.8839 80.7325 46.475 79.5706 43.7937H76.1716C75.4216 45.5834 75.7789 44.724 75.0289 46.5297H70.2362C68.0378 46.5297 66.2482 45.9922 64.9253 44.9396V46.5297H53.0352C52.9805 44.0448 53.0159 42.0942 53.0159 42.0942C52.694 42.0427 52.4075 42.0588 51.2649 42.0588V46.549H27.0341V44.5115C26.5867 45.5126 26.5513 45.5673 26.1232 46.549H20.8477C20.1331 44.9557 20.3295 45.4031 19.9368 44.5115V46.549H10.4769C9.72369 44.7433 10.0842 45.6027 9.33101 43.8131H5.8966C5.14663 45.6027 5.50391 44.7433 4.75394 46.549H-0.00336719V82.9756C-0.00336719 87.7136 3.83982 91.56 8.58104 91.56H94.4315C99.1695 91.56 103.016 87.7168 103.016 82.9756V66.811C100.744 68.2949 97.1675 67.9022 90.9456 67.9022L90.9488 67.899ZM97.4378 56.3662H102.82V53.7558H96.9357C94.6472 53.7558 92.6805 54.9338 92.6805 57.4573C92.6805 63.3573 100.315 59.7459 100.315 62.3563C100.315 63.2672 99.5461 63.5022 98.8122 63.5022H93.0893L93.07 66.148H98.7929C100.296 66.148 101.941 65.8261 102.816 64.5579V59.9454C100.94 57.4767 95.7898 59.7137 95.7898 57.5314C95.7898 56.4949 96.6138 56.3694 97.4346 56.3694L97.4378 56.3662ZM87.2441 63.4828H81.4857L81.4696 66.1287H87.228C89.8738 66.1287 91.9145 65.1276 91.9145 62.1953C91.9145 56.26 84.2442 60.1933 84.2442 57.4927C84.2442 56.4917 85.1197 56.3501 85.889 56.3501H91.3254V53.7397H85.3901C83.1015 53.7397 81.1864 54.921 81.1864 57.4412C81.1864 63.3412 88.8213 59.6751 88.8213 62.3402C88.8052 63.3058 87.9812 63.4828 87.2473 63.4828H87.2441ZM79.6993 56.3115V53.7558H69.8274L69.8081 66.148H79.68L79.6961 63.5923L72.7951 63.5376V61.0688H79.5706V58.5485H72.8112V56.3147L79.6993 56.3115ZM69.6311 36.9829C69.5796 37.0183 69.38 37.3756 69.38 38.3412C69.38 39.413 69.5409 39.7188 69.5763 39.7542C69.6118 39.7703 69.7727 39.8443 70.1847 39.8443L71.4915 36.8219C71.2952 36.8219 71.1149 36.8058 70.9379 36.8058C69.9368 36.8058 69.6858 36.9282 69.6311 36.9829ZM70.3843 32.3865C66.1806 32.3865 64.304 34.5334 64.304 38.6985C64.304 42.6704 66.1291 44.7787 70.204 44.7787H73.6384L74.7811 42.0427H80.916L82.0973 44.7787H88.1228V35.499L93.7009 44.7787H97.9207V32.4412H94.8983V41.0417L89.6968 32.4412H85.1712V44.1349L80.1821 32.4412H75.7467L71.543 42.1876H70.2201C67.8414 42.1876 67.3425 40.7392 67.3425 38.6309C67.3425 34.3757 70.1493 35.0516 73.2618 35.1063V32.3929L70.3843 32.3865ZM77.9129 34.5495L79.915 39.4838H75.84L77.9129 34.5495ZM59.8332 32.4058V44.798H62.8556V32.4058H59.8332Z" fill="black"/>
</g>
<defs>
<clipPath id="clip0_193_2681">
<rect width="103" height="103" fill="white"/>
</clipPath>
</defs>
</svg>
