<svg width="100" height="100" viewBox="0 0 100 100" fill="none" xmlns="http://www.w3.org/2000/svg">
<path fill-rule="evenodd" clip-rule="evenodd" d="M50 75C63.8071 75 75 63.8071 75 50C75 36.1929 63.8071 25 50 25C36.1929 25 25 36.1929 25 50C25 63.8071 36.1929 75 50 75ZM50 66.6667C59.2046 66.6667 66.6667 59.2046 66.6667 50C66.6667 40.7952 59.2046 33.3333 50 33.3333C40.7952 33.3333 33.3333 40.7952 33.3333 50C33.3333 59.2046 40.7952 66.6667 50 66.6667Z" fill="#0F0F0F"/>
<path d="M75.0002 20.8359C72.6989 20.8359 70.8335 22.7014 70.8335 25.0026C70.8335 27.3038 72.6989 29.1693 75.0002 29.1693C77.3014 29.1693 79.1668 27.3038 79.1668 25.0026C79.1668 22.7014 77.3014 20.8359 75.0002 20.8359Z" fill="#0F0F0F"/>
<path fill-rule="evenodd" clip-rule="evenodd" d="M6.89134 17.8143C4.1665 23.1621 4.1665 30.1628 4.1665 44.1641V55.8307C4.1665 69.832 4.1665 76.8328 6.89134 82.1803C9.28817 86.8845 13.1127 90.7091 17.8168 93.1057C23.1645 95.8307 30.1652 95.8307 44.1665 95.8307H55.8332C69.8344 95.8307 76.8353 95.8307 82.1827 93.1057C86.8869 90.7091 90.7115 86.8845 93.1082 82.1803C95.8332 76.8328 95.8332 69.832 95.8332 55.8307V44.1641C95.8332 30.1628 95.8332 23.1621 93.1082 17.8143C90.7115 13.1102 86.8869 9.28573 82.1827 6.8889C76.8353 4.16406 69.8344 4.16406 55.8332 4.16406H44.1665C30.1652 4.16406 23.1645 4.16406 17.8168 6.8889C13.1127 9.28573 9.28817 13.1102 6.89134 17.8143ZM55.8332 12.4974H44.1665C37.0283 12.4974 32.1759 12.5039 28.4252 12.8103C24.7717 13.1088 22.9033 13.6499 21.6 14.3139C18.464 15.9119 15.9143 18.4615 14.3164 21.5976C13.6523 22.9009 13.1113 24.7692 12.8128 28.4227C12.5063 32.1734 12.4998 37.0259 12.4998 44.1641V55.8307C12.4998 62.9691 12.5063 67.8211 12.8128 71.572C13.1113 75.2257 13.6523 77.0941 14.3164 78.3974C15.9143 81.5332 18.464 84.0828 21.6 85.6807C22.9033 86.3449 24.7717 86.8861 28.4252 87.1845C32.1759 87.4907 37.0283 87.4974 44.1665 87.4974H55.8332C62.9715 87.4974 67.8236 87.4907 71.5744 87.1845C75.2282 86.8861 77.0965 86.3449 78.3998 85.6807C81.5357 84.0828 84.0853 81.5332 85.6832 78.3974C86.3473 77.0941 86.8886 75.2257 87.1869 71.572C87.4932 67.8211 87.4998 62.9691 87.4998 55.8307V44.1641C87.4998 37.0259 87.4932 32.1734 87.1869 28.4227C86.8886 24.7692 86.3473 22.9009 85.6832 21.5976C84.0853 18.4615 81.5357 15.9119 78.3998 14.3139C77.0965 13.6499 75.2282 13.1088 71.5744 12.8103C67.8236 12.5039 62.9715 12.4974 55.8332 12.4974Z" fill="#0F0F0F"/>
</svg>
