<svg width="20" height="20" viewBox="0 0 20 20" fill="none" xmlns="http://www.w3.org/2000/svg">
<path d="M11.2421 20H9.67911C8.74311 19.92 7.79711 19.8 6.87411 19.582C5.81611 19.332 4.62411 19.086 4.48311 17.794L4.47711 10.531L1.15011 8.587C0.978106 8.438 0.987106 8.291 1.01711 8.076C1.97211 5.194 1.59011 2.783 4.62611 1.253C5.50811 0.809 6.42411 0.416 7.31911 0C7.65111 0.011 7.97811 0.179 8.30211 0.259C9.67511 0.604 10.9151 0.649 12.3031 0.336C12.6181 0.265 13.4221 -0.048 13.6651 0.015C13.7431 0.035 13.9441 0.142 14.0411 0.185C14.9111 0.567 15.9941 1.056 16.8151 1.513C19.2381 2.867 19.0771 5.705 19.8961 8.043C19.9221 8.205 19.9521 8.399 19.8361 8.533L16.4441 10.531L16.4381 17.792C16.2961 19.086 15.1051 19.33 14.0471 19.58C13.1501 19.791 12.1521 19.953 11.2421 19.998V20ZM4.48411 9.531V7.558C4.48411 7.526 4.60411 7.392 4.64311 7.364C4.89711 7.186 5.22111 7.3 5.30311 7.599V17.56C5.36711 18.353 5.85211 18.435 6.50811 18.622C8.95311 19.315 11.7751 19.325 14.2281 18.668C14.7301 18.534 15.3681 18.437 15.5601 17.891L15.5781 7.791C15.5931 7.407 15.9231 7.106 16.2801 7.362C16.3341 7.401 16.4381 7.537 16.4381 7.595V9.529L19.0201 8.059L18.0121 4.185C17.4491 2.279 15.4271 1.88 13.8811 1.052C13.7521 1.378 13.6801 1.697 13.5151 2.016C12.1991 4.551 8.47411 4.45 7.31811 1.833C7.20411 1.578 7.15511 1.307 7.04211 1.054C5.55711 1.86 3.60811 2.236 2.97011 4.012L1.90311 8.059L4.48411 9.529V9.531ZM12.9991 1.052C11.3091 1.501 9.61011 1.515 7.92011 1.052C8.65511 3.661 12.2601 3.652 12.9991 1.052Z" fill="currentColor"/>
</svg>
