<svg width="100" height="100" viewBox="0 0 100 100" fill="none" xmlns="http://www.w3.org/2000/svg">
<path d="M57.2175 90.7109L59.4763 86.8947L54.0975 83.7109L51.8388 87.5272L57.2175 90.7109ZM40.5238 86.8947L42.7825 90.7109L48.1613 87.5272L45.9025 83.7109L40.5238 86.8947ZM51.8388 87.5272C51.0363 88.8834 48.965 88.8834 48.1613 87.5272L42.7825 90.7109C46.0063 96.1572 53.9938 96.1572 57.2163 90.7109L51.8375 87.5272H51.8388ZM43.75 11.4622H56.25V5.21219H43.75V11.4622ZM88.5413 43.7534V47.9197H94.7913V43.7534H88.5413ZM11.4588 47.9197V43.7534H5.20877V47.9197H11.4588ZM5.20877 47.9197C5.20877 52.7309 5.20752 56.4947 5.41377 59.5309C5.62252 62.5959 6.05502 65.1459 7.03252 67.5047L12.8063 65.1134C12.1975 63.6434 11.8363 61.8522 11.6488 59.1059C11.46 56.3322 11.4575 52.8159 11.4575 47.9197H5.20752H5.20877ZM32.51 76.0097C27.2788 75.9197 24.5375 75.5872 22.39 74.6972L19.9988 80.4709C23.3525 81.8597 27.1725 82.1684 32.4038 82.2584L32.5113 76.0097H32.51ZM7.03252 67.5047C9.46377 73.3747 14.1288 78.0397 19.9988 80.4709L22.39 74.6972C18.0513 72.8997 14.6038 69.4522 12.8063 65.1134L7.03252 67.5047ZM88.5413 47.9197C88.5413 52.8159 88.54 56.3322 88.35 59.1059C88.1625 61.8522 87.8013 63.6434 87.1925 65.1134L92.9663 67.5047C93.9438 65.1459 94.375 62.5959 94.585 59.5309C94.7925 56.4947 94.79 52.7297 94.79 47.9197H88.54H88.5413ZM67.5975 82.2584C72.8275 82.1684 76.6488 81.8597 80.0025 80.4709L77.6113 74.6972C75.4625 75.5872 72.7213 75.9197 67.4913 76.0097L67.5988 82.2584H67.5975ZM87.1938 65.1134C85.3963 69.4522 81.9488 72.8997 77.61 74.6972L80.0013 80.4709C85.8713 78.0397 90.5363 73.3747 92.9675 67.5047L87.1938 65.1134ZM56.25 11.4622C63.13 11.4622 68.0713 11.4659 71.925 11.8322C75.7325 12.1947 78.155 12.8884 80.0863 14.0722L83.3525 8.74344C80.2738 6.85719 76.7813 6.01594 72.5175 5.61094C68.2988 5.20969 63.01 5.21344 56.2513 5.21344V11.4634L56.25 11.4622ZM94.7913 43.7534C94.7913 36.9947 94.795 31.7059 94.3938 27.4872C93.9888 23.2222 93.1475 19.7297 91.2613 16.6522L85.9325 19.9172C87.1163 21.8484 87.81 24.2709 88.1725 28.0784C88.5388 31.9322 88.5425 36.8734 88.5425 43.7534H94.7925H94.7913ZM80.0863 14.0709C82.4688 15.5309 84.4725 17.5347 85.9325 19.9172L91.2613 16.6522C89.2863 13.4284 86.575 10.7184 83.3513 8.74219L80.085 14.0709H80.0863ZM43.75 5.21219C36.9913 5.21219 31.7025 5.20844 27.4838 5.60969C23.2188 6.01469 19.7263 6.85594 16.6488 8.74219L19.9138 14.0709C21.845 12.8872 24.2675 12.1934 28.075 11.8309C31.9288 11.4647 36.87 11.4609 43.75 11.4609V5.21094V5.21219ZM11.4588 43.7534C11.4588 36.8734 11.4625 31.9322 11.8288 28.0784C12.1913 24.2709 12.885 21.8484 14.0688 19.9172L8.74002 16.6522C6.85377 19.7309 6.01252 23.2222 5.60752 27.4872C5.20627 31.7059 5.21002 36.9947 5.21002 43.7534H11.46H11.4588ZM16.6488 8.74219C13.425 10.7172 10.715 13.4284 8.73877 16.6522L14.0675 19.9172C15.5275 17.5347 17.5313 15.5309 19.9138 14.0709L16.6488 8.74219ZM45.9025 83.7109C45.0563 82.2822 44.3138 81.0209 43.5925 80.0297C42.8313 78.9859 41.96 78.0472 40.75 77.3434L37.6075 82.7459C37.805 82.8609 38.0738 83.0697 38.5413 83.7109C39.0475 84.4047 39.6188 85.3634 40.5238 86.8947L45.9025 83.7109ZM32.4025 82.2584C34.2325 82.2897 35.3913 82.3134 36.2738 82.4109C37.0988 82.5022 37.4188 82.6359 37.6063 82.7459L40.7488 77.3434C39.5288 76.6334 38.26 76.3434 36.9613 76.1997C35.7213 76.0622 34.2225 76.0397 32.5088 76.0109L32.4013 82.2597L32.4025 82.2584ZM59.4763 86.8947C60.3825 85.3634 60.9538 84.4047 61.4588 83.7109C61.9263 83.0697 62.195 82.8609 62.3925 82.7459L59.25 77.3434C58.04 78.0472 57.1675 78.9872 56.4075 80.0297C55.685 81.0209 54.9425 82.2822 54.0963 83.7109L59.475 86.8947H59.4763ZM67.49 76.0097C65.7763 76.0397 64.2775 76.0622 63.0375 76.1984C61.74 76.3422 60.47 76.6322 59.25 77.3422L62.3925 82.7447C62.58 82.6359 62.9 82.5022 63.725 82.4097C64.6088 82.3122 65.7675 82.2884 67.5963 82.2572L67.4888 76.0084L67.49 76.0097Z" fill="black"/>
<path d="M66.6663 40.625H33.3325C31.6063 40.625 30.2075 39.2263 30.2075 37.5C30.2075 35.7737 31.6063 34.375 33.3325 34.375H66.6663C68.3925 34.375 69.7913 35.7737 69.7913 37.5C69.7913 39.2263 68.3925 40.625 66.6663 40.625Z" fill="black"/>
<path d="M56.2502 55.2109H33.334C31.6077 55.2109 30.209 53.8122 30.209 52.0859C30.209 50.3597 31.6077 48.9609 33.334 48.9609H56.2502C57.9765 48.9609 59.3752 50.3597 59.3752 52.0859C59.3752 53.8122 57.9765 55.2109 56.2502 55.2109Z" fill="black"/>
</svg>
