<svg width="103" height="103" viewBox="0 0 103 103" fill="none" xmlns="http://www.w3.org/2000/svg">
<g clip-path="url(#clip0_193_2672)">
<path d="M44.6325 67.3999H36.2891L41.5072 37.1484H49.8506L44.6325 67.3999Z" fill="black"/>
<path d="M74.8791 37.8893C73.2327 37.2767 70.6228 36.6016 67.3957 36.6016C59.1557 36.6016 53.3533 40.7216 53.3188 46.6102C53.2499 50.9558 57.4733 53.3682 60.6314 54.8173C63.8601 56.2977 64.9566 57.2642 64.9566 58.5833C64.9237 60.6104 62.3483 61.544 59.9453 61.544C56.6148 61.544 54.8289 61.0631 52.1173 59.9352L51.0191 59.4511L49.8521 66.2421C51.8087 67.0786 55.4148 67.8196 59.1573 67.8525C67.9127 67.8525 73.6118 63.7967 73.6791 57.5211C73.712 54.0779 71.4828 51.4383 66.6751 49.2827C63.7567 47.8979 61.9692 46.9658 61.9692 45.5496C62.0037 44.2619 63.481 42.9429 66.7754 42.9429C69.4871 42.8787 71.4813 43.4896 72.9899 44.1006L73.7449 44.4217L74.8791 37.8893Z" fill="black"/>
<path fill-rule="evenodd" clip-rule="evenodd" d="M89.8142 37.1484H96.2684L103 67.3999H95.2736C95.2736 67.3999 94.517 63.9237 94.2789 62.8616H83.5668C83.2567 63.6653 81.8155 67.3999 81.8155 67.3999H73.0601L85.453 39.658C86.3114 37.6952 87.8231 37.1484 89.8142 37.1484ZM89.3004 48.2192C89.3004 48.2192 86.6561 54.9459 85.9699 56.6832H92.905C92.5619 55.1715 90.9813 47.9294 90.9813 47.9294L90.3985 45.3226C90.1526 45.9931 89.7985 46.9174 89.5589 47.5393C89.3959 47.9607 89.2879 48.2442 89.302 48.2192H89.3004Z" fill="black"/>
<path fill-rule="evenodd" clip-rule="evenodd" d="M0.137856 37.1484H13.5615C15.3819 37.2127 16.8575 37.7594 17.3385 39.6909L20.2554 53.5908C20.2554 53.5908 20.2554 53.5924 20.2554 53.594L21.1483 57.7782L29.3194 37.15H38.1421L25.027 67.3701H16.2043L8.76793 41.0836C6.20193 39.6768 3.27407 38.5458 0 37.761L0.137856 37.15V37.1484Z" fill="black"/>
</g>
<defs>
<clipPath id="clip0_193_2672">
<rect width="103" height="103" fill="white"/>
</clipPath>
</defs>
</svg>
