<svg width="103" height="103" viewBox="0 0 103 103" fill="none" xmlns="http://www.w3.org/2000/svg">
<path d="M81.7548 50.2755C81.7509 50.2678 81.7471 50.2588 81.7432 50.2511L61.3337 11.6905C61.1303 11.3055 60.7132 11.0815 60.2806 11.124C59.8467 11.1664 59.4823 11.4677 59.3574 11.8849L55.2271 25.7088L46.3743 9.15279C46.1683 8.76783 45.7498 8.54767 45.316 8.59144C44.8821 8.6365 44.519 8.94035 44.3967 9.36008L20.8367 90.5704C20.7028 91.0301 20.8908 91.5232 21.2963 91.7781C21.4714 91.8888 21.6697 91.9429 21.8667 91.9429C22.1255 91.9429 22.3817 91.8502 22.5838 91.6687L41.0891 75.0509L35.8618 93.0489C35.7279 93.5098 35.9159 94.0029 36.3228 94.2578C36.4979 94.3673 36.6948 94.4213 36.8918 94.4213C37.1519 94.4213 37.4094 94.3274 37.6128 94.1432L80.8831 54.9672C80.8896 54.9608 80.896 54.9543 80.9024 54.9479C82.226 53.7827 82.5826 51.836 81.7535 50.2781L81.7548 50.2755ZM45.7254 12.4874L65.1473 48.8104C65.1473 48.8104 65.1486 48.8129 65.1499 48.8142C65.1499 48.8142 65.1499 48.8168 65.1512 48.8181C65.5297 49.5133 65.3688 50.3901 64.7662 50.9038C64.7649 50.9051 64.7623 50.9077 64.7611 50.909C64.7559 50.9129 64.7508 50.9167 64.7456 50.9219L23.9447 87.5615L45.7254 12.4874ZM44.1134 72.3369C44.1134 72.3369 44.1134 72.3343 44.1134 72.333L66.158 52.5364C66.158 52.5364 66.158 52.5364 66.1593 52.5351L66.1773 52.5184C66.1773 52.5184 66.1838 52.5119 66.1876 52.5081C67.5227 51.3429 67.882 49.3859 67.0477 47.8216C67.0438 47.8138 67.0412 47.8061 67.0361 47.7984L56.6614 28.3958L60.6604 15.0109L79.8428 51.2553C79.8428 51.2553 79.8454 51.2579 79.8454 51.2605C79.8454 51.2631 79.848 51.2656 79.8493 51.2682C80.2278 51.9635 80.0669 52.8402 79.4643 53.3552C79.4604 53.3591 79.4566 53.363 79.4527 53.3655C79.4489 53.3694 79.4437 53.372 79.4398 53.3758L38.9763 90.0104L44.1096 72.3394L44.1134 72.3369Z" fill="black"/>
</svg>
