<svg width="103" height="103" viewBox="0 0 103 103" fill="none" xmlns="http://www.w3.org/2000/svg">
<g clip-path="url(#clip0_193_2679)">
<path d="M103 42.9128L89.5554 72.9534H85.3968L90.3923 62.4409L81.5407 42.9096H85.915L92.3203 57.88H92.404L98.6065 42.9096L103 42.9128ZM47.1419 52.2021V64.3722H42.9157V34.3316H54.0976C56.7628 34.264 59.3442 35.1878 61.3398 36.9291C63.3194 38.5546 64.4073 40.8528 64.3751 43.2829C64.4073 45.7485 63.284 48.1111 61.3398 49.6528C59.3957 51.362 56.9816 52.2021 54.0976 52.2021H47.1419ZM47.1258 38.0364V48.5134H54.2006C55.7585 48.5649 57.2842 47.9952 58.3754 46.9716C59.4665 45.9996 60.0684 44.6734 60.0684 43.299C60.0684 41.9085 59.4633 40.5824 58.3754 39.6264C57.252 38.5546 55.7424 37.9849 54.2006 38.0332L47.1258 38.0364ZM72.8404 42.9128C75.5216 42.9128 77.6525 43.666 79.2103 45.1595C80.7682 46.653 81.5407 48.6969 81.5407 51.2944V63.7156H78.0548V60.9152H77.9035C76.3939 63.2134 74.3983 64.369 71.9005 64.369C69.7536 64.369 67.9769 63.7156 66.5349 62.3894C65.1251 61.1502 64.3397 59.3381 64.3719 57.4615C64.3719 55.3822 65.1251 53.7246 66.6508 52.4821C68.1604 51.259 70.1882 50.6378 72.7181 50.6378C74.8811 50.6378 76.6579 51.0562 78.0484 51.877V51.0047C78.0645 49.7301 77.5108 48.507 76.5549 47.6508C75.5989 46.7624 74.3404 46.2603 73.0335 46.2764C71.0057 46.2764 69.3964 47.1647 68.2054 48.9415L65.0028 46.8622C66.7634 44.2292 69.3771 42.9063 72.8308 42.9063L72.8404 42.9128ZM68.1314 57.5484C68.1153 58.5205 68.5659 59.425 69.3384 60.014C70.1431 60.6674 71.1506 61.0215 72.1709 61.0021C73.6966 61.0021 75.1708 60.3648 76.262 59.2415C77.4175 58.1697 78.0741 56.6601 78.0741 55.0829C76.9347 54.143 75.3575 53.6731 73.3297 53.6731C71.8362 53.6731 70.6131 54.0432 69.6249 54.7803C68.6367 55.5335 68.1314 56.4444 68.1314 57.5484ZM17.5198 34.3316C21.8458 34.2801 26.0366 35.8734 29.2392 38.8089L24.2437 43.7046C22.4155 42.0115 20.0014 41.0877 17.5198 41.1392C13.0618 41.1553 9.12205 44.0072 7.68005 48.2141C6.94296 50.3417 6.94296 52.6559 7.68005 54.7867C9.12205 58.9937 13.0618 61.8455 17.5198 61.8616C19.8823 61.8616 21.9134 61.2757 23.4873 60.2361C25.3156 59.0291 26.5902 57.1525 26.9732 55.0056H17.5166V48.4007H34.0287C34.2315 49.5563 34.3313 50.715 34.3313 51.8867C34.3313 57.1171 32.4194 61.5429 29.1169 64.5267C26.2168 67.1435 22.2449 68.666 17.5166 68.666C10.9278 68.6982 4.89262 65.0449 1.85734 59.2093C-0.62432 54.3651 -0.62432 48.6325 1.85734 43.7851C4.89262 37.9495 10.9278 34.2962 17.4972 34.3284L17.5198 34.3316Z" fill="black"/>
</g>
<defs>
<clipPath id="clip0_193_2679">
<rect width="103" height="103" fill="white"/>
</clipPath>
</defs>
</svg>
