<svg width="40" height="40" viewBox="0 0 40 40" fill="none" xmlns="http://www.w3.org/2000/svg">
<rect x="0.5" y="0.5" width="39" height="39" rx="1.5" stroke="#AEAEAE" stroke-opacity="0.917647"/>
<path d="M8.23625 26.8515C8.38866 26.699 8.59915 26.6047 8.83179 26.6047C9.29706 26.6047 9.67407 26.9817 9.67407 27.447L9.67407 30.1783L13.8702 25.9807C14.1992 25.6518 14.7324 25.6518 15.0613 25.9807C15.3902 26.3097 15.3902 26.8429 15.0613 27.1718L10.8651 31.3693L13.5964 31.3693C14.0617 31.3693 14.4387 31.7463 14.4387 32.2116C14.4387 32.6769 14.0617 33.0539 13.5964 33.0539L8.83178 33.0539C8.70993 33.0539 8.59396 33.028 8.48926 32.9812C8.40921 32.9454 8.33363 32.897 8.26555 32.835C8.25537 32.8259 8.24572 32.8166 8.23607 32.807C8.22642 32.7973 8.21713 32.7877 8.20802 32.7775C8.1462 32.7096 8.0976 32.6338 8.06204 32.554C8.0154 32.4494 7.9895 32.3335 7.98932 32.2114L7.98932 27.4468C7.98932 27.2142 8.08384 27.0039 8.23625 26.8515Z" fill="black"/>
<path d="M31.7637 13.1485C31.6113 13.301 31.4009 13.3953 31.1682 13.3953C30.7029 13.3953 30.3259 13.0183 30.3259 12.553L30.3259 9.82174L26.1298 14.0193C25.8008 14.3482 25.2676 14.3482 24.9387 14.0193C24.6098 13.6903 24.6098 13.1571 24.9387 12.8282L29.1349 8.63068L26.4036 8.63067C25.9383 8.63067 25.5613 8.25366 25.5613 7.78839C25.5613 7.32311 25.9383 6.9461 26.4036 6.9461L31.1682 6.9461C31.2901 6.9461 31.406 6.97201 31.5107 7.01882C31.5908 7.05455 31.6664 7.10298 31.7344 7.16498C31.7446 7.17409 31.7543 7.18338 31.7639 7.19303C31.7736 7.20268 31.7829 7.21233 31.792 7.22251C31.8538 7.29041 31.9024 7.36617 31.938 7.44604C31.9846 7.55056 32.0105 7.66653 32.0107 7.78856L32.0107 12.5532C32.0107 12.7858 31.9162 12.9961 31.7637 13.1485Z" fill="black"/>
</svg>
