<svg width="20" height="20" viewBox="0 0 20 20" fill="none" xmlns="http://www.w3.org/2000/svg">
<path d="M9.99976 18.0626C9.97501 18.0626 9.95026 18.0588 9.92626 18.0516C7.87326 17.4198 6.17526 16.4518 5.01526 15.2521C4.42401 14.6406 3.96876 13.9681 3.66151 13.2531C3.34676 12.5203 3.18701 11.7413 3.18701 10.9376V4.68756C3.18701 4.58381 3.25101 4.49081 3.34801 4.45406L9.91051 1.95406C9.96776 1.93231 10.0313 1.93231 10.0885 1.95406L16.651 4.45406C16.748 4.49106 16.812 4.58406 16.812 4.68756V10.9376C16.812 11.6693 16.6523 12.4046 16.3368 13.1231C16.0265 13.8301 15.5723 14.5058 14.9868 15.1318C13.777 16.4251 12.0778 17.4348 10.073 18.0516C10.049 18.0588 10.0243 18.0626 9.99951 18.0626H9.99976ZM3.68726 4.85981V10.9376C3.68726 11.6731 3.83326 12.3856 4.12101 13.0556C4.40401 13.7146 4.82601 14.3366 5.37476 14.9043C6.46226 16.0293 8.06026 16.9436 9.99976 17.5506C11.8893 16.9576 13.4863 16.0041 14.622 14.7901C15.7278 13.6081 16.3125 12.2758 16.3125 10.9373V4.85956L10 2.45481L3.68751 4.85956L3.68726 4.85981Z" fill="#FE7F2D"/>
<path d="M9.0625 11.8749C8.97975 11.8749 8.90025 11.8422 8.8415 11.7834L6.9665 9.9084C6.8445 9.7864 6.8445 9.5884 6.9665 9.4664C7.0885 9.3444 7.2865 9.3444 7.4085 9.4664L9.045 11.1029L12.5755 6.98415C12.6877 6.85315 12.885 6.8379 13.016 6.95015C13.147 7.0624 13.1623 7.25965 13.05 7.3909L9.3 11.7659C9.24325 11.8319 9.16175 11.8714 9.07475 11.8749C9.07075 11.8749 9.06675 11.8749 9.06275 11.8749H9.0625Z" fill="#FE7F2D"/>
</svg>
