<svg width="20" height="20" viewBox="0 0 20 20" fill="none" xmlns="http://www.w3.org/2000/svg">
<path d="M20 19.072L16.821 15.891C18.291 14.205 19.189 12.007 19.189 9.598C19.189 4.306 14.885 0 9.594 0C4.304 0 0 4.306 0 9.598C0 14.89 4.304 19.196 9.594 19.196C12.006 19.196 14.207 18.295 15.894 16.82L19.073 20L20 19.072ZM9.594 17.885C5.027 17.885 1.311 14.167 1.311 9.598C1.311 5.029 5.027 1.312 9.594 1.312C14.162 1.312 17.878 5.029 17.878 9.598C17.878 14.167 14.162 17.885 9.594 17.885Z" fill="black"/>
</svg>
