<svg width="20" height="20" viewBox="0 0 20 20" fill="none" xmlns="http://www.w3.org/2000/svg">
<g clip-path="url(#clip0_94_1083)">
<path d="M10 20C15.5228 20 20 15.5228 20 10C20 4.47715 15.5228 0 10 0C4.47715 0 0 4.47715 0 10C0 15.5228 4.47715 20 10 20Z" fill="black"/>
<path d="M10.6601 17.9978H9.34012C8.55012 17.9378 7.75011 17.8378 6.97011 17.6678C6.08011 17.4678 5.07011 17.2678 4.95011 16.2378V10.4278L2.13012 8.87781C1.98012 8.75781 1.99012 8.63781 2.02012 8.46781C2.83012 6.15781 2.50012 4.23781 5.07012 3.00781C5.82012 2.64781 6.59011 2.33781 7.35011 2.00781C7.63012 2.00781 7.91012 2.14781 8.18012 2.21781C9.34012 2.49781 10.3901 2.52781 11.5601 2.27781C11.8301 2.21781 12.5101 1.96781 12.7101 2.01781C12.7801 2.03781 12.9501 2.11781 13.0301 2.15781C13.7701 2.46781 14.6801 2.85781 15.3801 3.21781C17.4301 4.29781 17.2901 6.56781 17.9901 8.43781C18.0101 8.56781 18.0401 8.71781 17.9401 8.82781L15.0701 10.4278V16.2378C14.9501 17.2778 13.9401 17.4678 13.0401 17.6678C12.2801 17.8378 11.4401 17.9678 10.6701 17.9978H10.6601ZM4.95011 9.61781V8.03781C4.95011 8.03781 5.05012 7.90781 5.08012 7.87781C5.29012 7.73781 5.57012 7.82781 5.64012 8.06781V16.0378C5.69011 16.6678 6.10011 16.7378 6.66011 16.8878C8.73011 17.4478 11.1101 17.4478 13.1901 16.9278C13.6101 16.8178 14.1501 16.7378 14.3201 16.3078L14.3401 8.22781C14.3501 7.91781 14.6301 7.67781 14.9301 7.88781C14.9801 7.91781 15.0601 8.02781 15.0601 8.07781V9.62781L17.2401 8.44781L16.3901 5.34781C15.9101 3.82781 14.2001 3.50781 12.9001 2.83781C12.7901 3.09781 12.7301 3.35781 12.5901 3.60781C11.4801 5.63781 8.33011 5.55781 7.35011 3.45781C7.25011 3.25781 7.21011 3.03781 7.12011 2.83781C5.86011 3.47781 4.22012 3.78781 3.68012 5.20781L2.78012 8.44781L4.96012 9.62781L4.95011 9.61781ZM12.1501 2.83781C10.7201 3.19781 9.28012 3.20781 7.86012 2.83781C8.48011 4.92781 11.5301 4.91781 12.1501 2.83781Z" fill="white"/>
</g>
<defs>
<clipPath id="clip0_94_1083">
<rect width="20" height="20" fill="white"/>
</clipPath>
</defs>
</svg>
