<svg width="20" height="20" viewBox="0 0 20 20" fill="none" xmlns="http://www.w3.org/2000/svg">
<g clip-path="url(#clip0_58_1882)">
<g clip-path="url(#clip1_58_1882)">
<path d="M10.8259 20H9.17373C8.18398 19.9198 7.18438 19.8004 6.20843 19.5822C5.09053 19.3323 3.83067 19.0861 3.68083 17.7935L3.67491 10.5306L0.157562 8.58715C-0.0238258 8.43794 -0.0139678 8.29059 0.017578 8.0761C1.02704 5.19444 0.622862 2.7828 3.83264 1.25338C4.76521 0.809475 5.73327 0.415928 6.67964 0C7.03059 0.0111909 7.37562 0.179054 7.71868 0.259256C9.16979 0.604308 10.4809 0.649072 11.9478 0.335727C12.281 0.264851 13.1307 -0.0484939 13.3871 0.0149212C13.4699 0.0354378 13.6828 0.141751 13.7853 0.18465C14.7041 0.567005 15.8496 1.05567 16.7171 1.51264C19.2782 2.86673 19.1087 5.70549 19.9742 8.04252C20.0018 8.20479 20.0333 8.39877 19.9111 8.53306L16.3248 10.5306L16.3188 17.7917C16.169 19.0861 14.9091 19.3304 13.7912 19.5803C12.8429 19.7911 11.7881 19.9534 10.8259 19.9981V20ZM3.6828 9.53091V7.55759C3.6828 7.52588 3.80898 7.39159 3.85039 7.36361C4.11852 7.18642 4.46158 7.3002 4.54833 7.59862V17.5604C4.61537 18.3531 5.12799 18.4351 5.82199 18.6217C8.40677 19.3155 11.3898 19.3248 13.9825 18.6683C14.5128 18.534 15.1871 18.437 15.3902 17.8905L15.4099 7.79073C15.4257 7.40651 15.7747 7.10622 16.1513 7.36175C16.2084 7.40091 16.3188 7.53707 16.3188 7.59489V9.52905L19.0475 8.05931L17.9829 4.1854C17.3875 2.27921 15.2502 1.88007 13.6158 1.05194C13.4797 1.37835 13.4028 1.69729 13.2293 2.01623C11.8374 4.55097 7.90007 4.45025 6.67767 1.83344C6.5574 1.57792 6.50614 1.30747 6.38587 1.05381C4.81647 1.85955 2.75614 2.23631 2.08185 4.01194L0.954092 8.05931L3.6828 9.52905V9.53091ZM12.6832 1.05194C10.8969 1.50145 9.10078 1.5145 7.3145 1.05194C8.09132 3.66129 11.9024 3.65196 12.6832 1.05194Z" fill="black"/>
<path d="M3.68281 9.53179L0.954102 8.06205L2.08186 4.01468C2.75615 2.23906 4.81648 1.8623 6.38588 1.05655C6.50615 1.31021 6.55938 1.58066 6.67768 1.83619C7.89811 4.45299 11.8354 4.55557 13.2293 2.01897C13.4048 1.70189 13.4797 1.38295 13.6158 1.05469C15.2502 1.88281 17.3875 2.28196 17.9829 4.18814L19.0476 8.06205L16.3188 9.53179V7.59763C16.3188 7.53981 16.2104 7.40366 16.1513 7.36449C15.7767 7.10896 15.4257 7.40925 15.4099 7.79347L15.3902 17.8933C15.1852 18.4397 14.5109 18.5367 13.9825 18.671C11.3898 19.3276 8.40481 19.3182 5.822 18.6244C5.128 18.4379 4.61538 18.3558 4.54834 17.5631V7.60136C4.45962 7.30294 4.11656 7.18916 3.85039 7.36635C3.80899 7.39433 3.68281 7.52862 3.68281 7.56033V9.53366V9.53179Z" fill="#FE7F2D"/>
<path d="M12.6831 1.05469C11.9044 3.65471 8.09127 3.66403 7.31445 1.05469C9.10073 1.51724 10.8969 1.50419 12.6831 1.05469Z" fill="#FE7F2D"/>
</g>
</g>
<defs>
<clipPath id="clip0_58_1882">
<rect width="20" height="20" fill="white"/>
</clipPath>
<clipPath id="clip1_58_1882">
<rect width="20" height="20" fill="white"/>
</clipPath>
</defs>
</svg>
