<svg width="12" height="20" viewBox="0 0 12 20" fill="none" xmlns="http://www.w3.org/2000/svg">
<path d="M7.154 8.462H4.462C2 8.462 0 10.462 0 12.923V20H11.538V12.923C11.538 10.462 9.538 8.462 7.077 8.462H7.154ZM10.846 19.231H0.846V12.923C0.846 10.923 2.462 9.231 4.538 9.231H7.231C9.231 9.231 10.923 10.846 10.923 12.923V19.231H10.846ZM5.923 6.923C7.846 6.923 9.385 5.385 9.385 3.462C9.385 1.538 7.846 0 5.923 0C4 0 2.462 1.538 2.462 3.462C2.462 5.385 4 6.923 5.923 6.923ZM5.923 0.769C7.385 0.769 8.615 2 8.615 3.462C8.615 4.923 7.385 6.154 5.923 6.154C4.462 6.154 3.231 4.923 3.231 3.462C3.231 2 4.462 0.769 5.923 0.769Z" fill="black"/>
</svg>
