<svg width="20" height="20" viewBox="0 0 20 20" fill="none" xmlns="http://www.w3.org/2000/svg">
<g clip-path="url(#clip0_94_1024)">
<path d="M10 20C15.5228 20 20 15.5228 20 10C20 4.47715 15.5228 0 10 0C4.47715 0 0 4.47715 0 10C0 15.5228 4.47715 20 10 20Z" fill="white"/>
<path d="M10.68 8.75H8.67C6.78 8.75 5.25 10.28 5.25 12.17V17.6H14.1V12.17C14.1 10.28 12.57 8.75 10.68 8.75ZM13.63 17.02H5.9V12.18C5.9 10.65 7.14 9.35 8.73 9.35H10.8C12.33 9.35 13.63 10.59 13.63 12.18V17.02Z" fill="#010101"/>
<path d="M13.6299 12.1816V17.0216H5.8999V12.1816C5.8999 10.6516 7.1399 9.35156 8.7299 9.35156H10.7999C12.3299 9.35156 13.6299 10.5916 13.6299 12.1816Z" fill="#010101"/>
<path d="M9.78988 2.25781C8.30988 2.25781 7.12988 3.43781 7.12988 4.91781C7.12988 6.39781 8.30988 7.57781 9.78988 7.57781C11.2699 7.57781 12.4499 6.39781 12.4499 4.91781C12.4499 3.43781 11.2699 2.25781 9.78988 2.25781ZM9.78988 6.97781C8.66988 6.97781 7.71988 6.03781 7.71988 4.90781C7.71988 3.77781 8.65988 2.83781 9.78988 2.83781C10.9199 2.83781 11.8599 3.77781 11.8599 4.90781C11.8599 6.03781 10.9199 6.97781 9.78988 6.97781Z" fill="#010101"/>
<path d="M11.8602 4.92156C11.8602 6.04156 10.9202 6.99156 9.79022 6.99156C8.66022 6.99156 7.72021 6.05156 7.72021 4.92156C7.72021 3.79156 8.66022 2.85156 9.79022 2.85156C10.9202 2.85156 11.8602 3.79156 11.8602 4.92156Z" fill="#010101"/>
<path d="M10.0298 20C15.5526 20 20.0298 15.5228 20.0298 10C20.0298 4.47715 15.5526 0 10.0298 0C4.50694 0 0.0297852 4.47715 0.0297852 10C0.0297852 15.5228 4.50694 20 10.0298 20Z" fill="white"/>
<path d="M10.8201 8.82031H8.82014C6.93014 8.82031 5.39014 10.3503 5.39014 12.2403V17.6703H14.2501V12.2403C14.2501 10.3503 12.7101 8.82031 10.8201 8.82031ZM13.7701 17.0803H6.04014V12.2403C6.04014 10.7103 7.28014 9.41031 8.87014 9.41031H10.9401C12.4701 9.41031 13.7701 10.6503 13.7701 12.2403V17.0803Z" fill="black"/>
<path d="M9.93978 2.32812C8.45978 2.32812 7.27979 3.50813 7.27979 4.97813C7.27979 6.44812 8.45978 7.63812 9.93978 7.63812C11.4198 7.63812 12.5898 6.45813 12.5898 4.97813C12.5898 3.49813 11.4098 2.32812 9.93978 2.32812ZM9.93978 7.04813C8.81978 7.04813 7.86978 6.09812 7.86978 4.97813C7.86978 3.85813 8.81978 2.91813 9.93978 2.91813C11.0598 2.91813 11.9998 3.85813 11.9998 4.97813C11.9998 6.09812 11.0598 7.04813 9.93978 7.04813Z" fill="black"/>
</g>
<defs>
<clipPath id="clip0_94_1024">
<rect width="20" height="20" fill="white"/>
</clipPath>
</defs>
</svg>
